<svg version="1.2" xmlns="http://www.w3.org/2000/svg" viewBox="0 0 250 250" width="250" height="250">
	<title>info_FILL0_wght400_GRAD0_opsz24-svg</title>
	<style>
		.s0 { fill: #ffffff } 
	</style>
	<path id="Layer" fill-rule="evenodd" class="s0" d="m125 229.2q-21.6 0-40.6-8.2-19-8.2-33.1-22.3-14.1-14.1-22.3-33.1-8.2-19-8.2-40.6 0-21.6 8.2-40.6 8.2-19 22.3-33.1 14.1-14.1 33.1-22.3 19-8.2 40.6-8.2 21.6 0 40.6 8.2 19 8.2 33.1 22.3 14.1 14.1 22.3 33.1 8.2 19 8.2 40.6 0 21.6-8.2 40.6-8.2 19-22.3 33.1-14.1 14.1-33.1 22.3-19 8.2-40.6 8.2zm0-20.9q34.9 0 59.1-24.2 24.2-24.2 24.2-59.1 0-34.9-24.2-59.1-24.2-24.2-59.1-24.2-34.9 0-59.1 24.2-24.2 24.2-24.2 59.1 0 34.9 24.2 59.1 24.2 24.2 59.1 24.2zm-10.4-93.7h20.8v62.5h-20.8zm3-23.8q-3-3-3-7.5 0-4.4 3-7.4 3-3 7.4-3 4.4 0 7.4 3 3 3 3 7.4 0 4.5-3 7.5-3 3-7.4 3-4.4 0-7.4-3z"/>
</svg>